<?xml version="1.0" encoding="utf-8"?>
<!-- Generator: Adobe Illustrator 16.0.0, SVG Export Plug-In . SVG Version: 6.00 Build 0)  -->
<svg version="1.2" baseProfile="tiny" id="Layer_1" xmlns="http://www.w3.org/2000/svg" xmlns:xlink="http://www.w3.org/1999/xlink"
	 x="0px" y="0px" width="379.998px" height="398.002px" viewBox="0 0 379.998 398.002" xml:space="preserve">
<path opacity=".5" fill="#FFFFFF" d="M376.38,219.342l-118.69-205.83c-7.449-12.92-23.91-17.34-36.77-9.9L13.44,123.542
	c-12.86,7.43-17.271,23.92-9.811,36.84l118.68,205.83c7.44,12.891,23.91,17.33,36.771,9.891l18.12-10.471l-41.37-71.75
	c-12.8,6.961-28.899,2.5-36.2-10.18l-67.1-116.36c-7.461-12.92-3.04-29.41,9.81-36.84l115.88-66.98
	c12.86-7.43,29.26-2.98,36.721,9.94l67.1,116.359c7.431,12.881,3.08,29.371-9.771,36.801l-20.379,11.78l-38.95-67.53
	c-4.461-7.74-14.33-10.39-22.061-5.91l-52.99,30.62c-7.689,4.44-10.33,14.319-5.869,22.06l38.949,67.541l41.35,71.711l23.721,41.109
	l80.91-46.77l-23.71-41.111l93.31-53.95C379.42,248.732,383.82,232.232,376.38,219.342z"/>
</svg>
