<?xml version="1.0" encoding="utf-8"?>
<!-- Generator: Adobe Illustrator 16.0.0, SVG Export Plug-In . SVG Version: 6.00 Build 0)  -->
<svg version="1.2" baseProfile="tiny" id="Capa_1" xmlns="http://www.w3.org/2000/svg" xmlns:xlink="http://www.w3.org/1999/xlink"
	 x="0px" y="0px" width="32px" height="32px" viewBox="0 0 32 32" xml:space="preserve">
<g opacity=".5">
	<path fill-rule="evenodd" d="M4.248,8.76C2.454,8.76,1,10.212,1,12.023v5.313c0,1.812,1.454,3.265,3.248,3.265h3.096l3.808,10.152
		h5.075l-3.806-10.152h5.498c8.645,0,13.534,6.767,13.534,6.767V1.991c0,0-4.89,6.769-13.534,6.769H4.248z"/>
</g>
<g>
	<path fill-rule="evenodd" fill="#ffffff" d="M3.248,7.76C1.454,7.76,0,9.212,0,11.023v5.313c0,1.812,1.454,3.265,3.248,3.265h3.096
		l3.808,10.152h5.075l-3.806-10.152h5.498c8.645,0,13.534,6.767,13.534,6.767V0.991c0,0-4.89,6.769-13.534,6.769H3.248z"/>
</g>
</svg>
