<?xml version="1.0" encoding="utf-8"?>
<!-- Generator: Adobe Illustrator 16.0.0, SVG Export Plug-In . SVG Version: 6.00 Build 0)  -->
<!DOCTYPE svg PUBLIC "-//W3C//DTD SVG 1.1//EN" "http://www.w3.org/Graphics/SVG/1.1/DTD/svg11.dtd">
<svg version="1.1" id="Capa_1" xmlns="http://www.w3.org/2000/svg" xmlns:xlink="http://www.w3.org/1999/xlink" x="0px" y="0px"
	 width="23px" height="21px" viewBox="-0.5 0.5 23 21" enable-background="new -0.5 0.5 23 21" xml:space="preserve">
	<g opacity=".5">
		<path d="M3.138,6.124c-1.248,0-2.256,1.018-2.256,2.285v3.724c0,1.275,1.008,2.295,2.256,2.295h2.141l2.64,7.111h3.522
			l-2.64-7.111h3.811c6.002,0,9.39,4.74,9.39,4.74V1.382c0,0-3.388,4.741-9.39,4.741H3.138z"/>
	</g>
	<g>
		<path fill="#ffffff" d="M2.255,5.202c-1.248,0-2.256,1.018-2.256,2.285v3.725c0,1.275,1.008,2.294,2.256,2.294h2.141l2.64,7.111
			h3.522l-2.64-7.111h3.811c6.002,0,9.39,4.74,9.39,4.74V0.46c0,0-3.388,4.741-9.39,4.741H2.255z"/>
	</g>
</svg>
