<?xml version="1.0" encoding="utf-8"?>
<!-- Generator: Adobe Illustrator 16.0.0, SVG Export Plug-In . SVG Version: 6.00 Build 0)  -->
<svg version="1.2" baseProfile="tiny" id="Layer_1" xmlns="http://www.w3.org/2000/svg" xmlns:xlink="http://www.w3.org/1999/xlink"
	 x="0px" y="0px" width="30px" height="30px" viewBox="0 0 30 30" xml:space="preserve">
<path fill="#FFFFFF" d="M270.729,265.104C270.729,265.102,270.729,265.102,270.729,265.104l-9.102-9.103l9.102-9.103l0,0
	c0.099-0.098,0.168-0.211,0.215-0.334c0.123-0.332,0.053-0.723-0.215-0.99l-4.301-4.299c-0.268-0.269-0.656-0.34-0.99-0.215
	c-0.121,0.045-0.235,0.116-0.334,0.215l0,0l-9.102,9.102l-9.102-9.102l0,0c-0.098-0.099-0.211-0.17-0.334-0.215
	c-0.332-0.125-0.723-0.053-0.99,0.215l-4.299,4.299c-0.269,0.268-0.34,0.658-0.215,0.99c0.045,0.123,0.117,0.236,0.213,0.334l0,0
	l9.102,9.102l-9.102,9.102l0,0c-0.098,0.099-0.168,0.213-0.213,0.334c-0.125,0.334-0.054,0.725,0.215,0.992l4.299,4.299
	c0.268,0.269,0.658,0.338,0.99,0.215c0.123-0.047,0.238-0.116,0.334-0.215l0,0l9.102-9.102l9.102,9.102l0,0
	c0.099,0.099,0.213,0.168,0.334,0.215c0.334,0.123,0.724,0.054,0.992-0.215l4.299-4.299c0.268-0.27,0.338-0.658,0.215-0.992
	C270.896,265.314,270.826,265.2,270.729,265.104z"/>
<path fill="#FFFFFF" d="M22.803,30c3.332-6.036,3.893-15.243-9.195-14.937V22.5L2.358,11.25L13.608,0v7.276
	C29.28,6.868,31.026,21.111,22.803,30z"/>
</svg>
