<?xml version="1.0" encoding="utf-8"?>
<!-- Generator: Adobe Illustrator 16.0.0, SVG Export Plug-In . SVG Version: 6.00 Build 0)  -->
<svg version="1.2" baseProfile="tiny" id="Capa_1" xmlns="http://www.w3.org/2000/svg" xmlns:xlink="http://www.w3.org/1999/xlink"
	 x="0px" y="0px" width="22px" height="22px" viewBox="0 0 22 22" xml:space="preserve">
<g>
	<path fill="#FFFFFF" d="M16.896,14.748C16.896,14.747,16.896,14.747,16.896,14.748l-3.476-3.476l3.476-3.475l0,0
		c0.038-0.037,0.064-0.081,0.082-0.127c0.047-0.127,0.02-0.276-0.082-0.378L15.254,5.65c-0.103-0.103-0.251-0.13-0.378-0.082
		c-0.046,0.018-0.09,0.044-0.128,0.082l0,0l-3.476,3.476L7.798,5.65l0,0C7.76,5.613,7.717,5.586,7.67,5.568
		C7.543,5.521,7.394,5.548,7.292,5.65L5.65,7.292C5.548,7.394,5.521,7.543,5.568,7.67c0.017,0.047,0.044,0.09,0.082,0.127l0,0
		l3.475,3.475L5.65,14.747l0,0c-0.037,0.038-0.064,0.082-0.082,0.128c-0.047,0.127-0.021,0.276,0.082,0.379l1.642,1.642
		c0.102,0.102,0.251,0.129,0.378,0.082c0.047-0.019,0.091-0.045,0.128-0.082l0,0l3.475-3.476l3.476,3.476l0,0
		c0.038,0.037,0.082,0.063,0.128,0.082c0.127,0.047,0.275,0.02,0.379-0.082l1.641-1.642c0.102-0.104,0.129-0.252,0.082-0.379
		C16.96,14.829,16.933,14.785,16.896,14.748z"/>
	<path fill="#7F7F7F" d="M16.35,14.203C16.35,14.202,16.35,14.202,16.35,14.203l-3.475-3.476l3.475-3.476l0,0
		c0.039-0.037,0.065-0.081,0.082-0.127c0.048-0.127,0.021-0.276-0.082-0.378l-1.641-1.641c-0.103-0.103-0.251-0.13-0.379-0.082
		c-0.047,0.018-0.09,0.044-0.128,0.082l0,0l-3.475,3.476L7.252,5.105l0,0C7.215,5.067,7.171,5.041,7.125,5.023
		c-0.127-0.048-0.276-0.02-0.378,0.082L5.105,6.746c-0.103,0.103-0.13,0.251-0.082,0.378c0.018,0.047,0.045,0.09,0.082,0.127l0,0
		l3.475,3.475l-3.475,3.475l0,0c-0.037,0.038-0.064,0.081-0.082,0.128c-0.048,0.128-0.021,0.276,0.082,0.379l1.642,1.641
		c0.102,0.104,0.251,0.13,0.378,0.082c0.047-0.017,0.091-0.044,0.127-0.082l0,0l3.476-3.475l3.475,3.475l0,0
		c0.038,0.038,0.081,0.065,0.128,0.082c0.128,0.048,0.276,0.021,0.379-0.082l1.641-1.641c0.103-0.103,0.13-0.251,0.082-0.379
		C16.415,14.283,16.387,14.24,16.35,14.203z"/>
</g>
</svg>
