<?xml version="1.0" encoding="utf-8"?>
<!-- Generator: Adobe Illustrator 16.0.0, SVG Export Plug-In . SVG Version: 6.00 Build 0)  -->
<svg version="1.2" baseProfile="tiny" id="Capa_1" xmlns="http://www.w3.org/2000/svg" xmlns:xlink="http://www.w3.org/1999/xlink"
	 x="0px" y="0px" width="22px" height="22px" viewBox="0 0 22 22" xml:space="preserve">
<g>
	<g>
		<path fill-rule="evenodd" fill="#FFFFFF" d="M13.501,15.132c-3.121,0-5.641-2.53-5.641-5.64c0-3.121,2.776-5.896,5.887-5.896
			c3.121,0,5.65,2.53,5.65,5.64C19.397,12.355,16.611,15.132,13.501,15.132z M1.373,20.29l1.25,1.24c0.482,0.492,1.28,0.492,1.772,0
			l5-5.001c1.211,0.71,2.609,1.113,4.105,1.113c4.498,0,8.396-3.899,8.396-8.407c0-4.498-3.652-8.15-8.15-8.15
			c-4.499,0-8.397,3.908-8.397,8.407c0,1.545,0.433,2.993,1.181,4.233L1.55,18.696C1.068,19.188,0.891,19.808,1.373,20.29z"/>
	</g>
	<g>
		<path fill-rule="evenodd" fill="#7F7F7F" d="M12.517,14.147c-3.121,0-5.641-2.53-5.641-5.64c0-3.121,2.776-5.896,5.887-5.896
			c3.121,0,5.65,2.53,5.65,5.64C18.413,11.372,15.627,14.147,12.517,14.147z M0.389,19.306l1.25,1.24
			c0.482,0.492,1.28,0.492,1.772,0l5-5.001c1.211,0.71,2.609,1.113,4.105,1.113c4.498,0,8.396-3.899,8.396-8.407
			c0-4.498-3.652-8.15-8.15-8.15c-4.499,0-8.397,3.908-8.397,8.407c0,1.545,0.433,2.993,1.181,4.233l-4.981,4.972
			C0.083,18.204-0.094,18.823,0.389,19.306z"/>
	</g>
</g>
</svg>
