<?xml version="1.0" encoding="utf-8"?>
<!-- Generator: Adobe Illustrator 16.0.0, SVG Export Plug-In . SVG Version: 6.00 Build 0)  -->
<svg version="1.2" baseProfile="tiny" id="Layer_1" xmlns="http://www.w3.org/2000/svg" xmlns:xlink="http://www.w3.org/1999/xlink"
	 x="0px" y="0px" width="30px" height="30px" viewBox="241 241 30 30" xml:space="preserve">
<path fill="#FFFFFF" d="M270.728,265.103C270.728,265.102,270.728,265.102,270.728,265.103l-9.101-9.102l9.101-9.102l0,0
	c0.099-0.098,0.169-0.212,0.215-0.334c0.124-0.333,0.053-0.723-0.215-0.991l-4.3-4.299c-0.268-0.268-0.657-0.339-0.99-0.214
	c-0.122,0.045-0.236,0.116-0.335,0.214l0,0l-9.101,9.102l-9.101-9.102c0,0,0,0,0,0c-0.098-0.098-0.212-0.169-0.334-0.214
	c-0.333-0.125-0.723-0.053-0.991,0.214l-4.299,4.299c-0.268,0.268-0.339,0.658-0.215,0.991c0.046,0.122,0.117,0.236,0.214,0.334
	c0,0,0,0,0,0l9.101,9.101l-9.101,9.101c0,0,0,0,0,0.001c-0.098,0.098-0.168,0.212-0.214,0.334c-0.124,0.333-0.053,0.724,0.215,0.991
	l4.299,4.299c0.268,0.269,0.658,0.339,0.991,0.215c0.122-0.046,0.237-0.116,0.334-0.214c0-0.001,0-0.001,0-0.001l9.101-9.101
	l9.101,9.101c0,0,0,0,0,0.001c0.099,0.098,0.213,0.168,0.335,0.214c0.333,0.124,0.723,0.054,0.991-0.215l4.299-4.299
	c0.268-0.269,0.339-0.658,0.215-0.991C270.896,265.314,270.826,265.2,270.728,265.103z"/>
</svg>
