<?xml version="1.0" encoding="utf-8"?>
<!-- Generator: Adobe Illustrator 16.0.0, SVG Export Plug-In . SVG Version: 6.00 Build 0)  -->
<svg version="1.2" baseProfile="tiny" id="Capa_1" xmlns="http://www.w3.org/2000/svg" xmlns:xlink="http://www.w3.org/1999/xlink"
	 x="0px" y="0px" width="16px" height="16px" viewBox="0 0 16 16" xml:space="preserve">
<path fill-rule="evenodd" fill="#CC3636" d="M3,0h10c1.66,0,3,1.34,3,3v10c0,1.66-1.34,3-3,3H3c-1.66,0-3-1.34-3-3V3
	C0,1.34,1.34,0,3,0z"/>
<g>
	<path fill-rule="evenodd" fill="#FFFFFF" d="M11.75,8.67h-1.5V7.11h1.5V8.67z M8.75,8.67h-1.5V7.11h1.5V8.67z M5.75,8.67h-1.5V7.11
		h1.5V8.67z M13.25,4H2.75C2.34,4,2,4.35,2,4.78v5.441C2,10.65,2.34,11,2.75,11h1.5v2.33L5.94,11h7.31c0.41,0,0.75-0.35,0.75-0.779
		V4.78C14,4.35,13.66,4,13.25,4z"/>
</g>
</svg>
