<?xml version="1.0" encoding="utf-8"?>
<!-- Generator: Adobe Illustrator 16.0.0, SVG Export Plug-In . SVG Version: 6.00 Build 0)  -->
<svg version="1.2" baseProfile="tiny" id="Capa_1" xmlns="http://www.w3.org/2000/svg" xmlns:xlink="http://www.w3.org/1999/xlink"
	 x="0px" y="0px" width="27px" height="20px" viewBox="0 0 27 20" xml:space="preserve">
<g>
	<path fill-rule="evenodd" fill="#548197" d="M10.066,8.78l-0.66,3l3.82,0.041l5.479-5.97l-2.77-2.8L10.066,8.78z M4.666,0.76
		c-1.56,0-2.82,1.23-2.82,2.75v12.82c0,1.529,1.26,2.75,2.82,2.75h8.45c1.57,0,2.82-1.221,2.82-2.75v-4.109l-0.88,1.069h-7.48
		l0.25-1.08h-2.46v-1.14h2.73l0.26-1.15h-2.99V8.78h3.26l0.28-1.15h-3.54V6.49h4.12l2.93-2.83v-2.9H4.666z M16.525,2.49l2.771,2.8
		l0.88-0.81l-2.93-2.84L16.525,2.49z"/>
</g>
</svg>
