<?xml version="1.0" encoding="utf-8"?>
<!-- Generator: Adobe Illustrator 16.0.0, SVG Export Plug-In . SVG Version: 6.00 Build 0)  -->
<svg version="1.2" baseProfile="tiny" id="Capa_1" xmlns="http://www.w3.org/2000/svg" xmlns:xlink="http://www.w3.org/1999/xlink"
	 x="0px" y="0px" width="27px" height="20px" viewBox="0 0 27 20" xml:space="preserve">
<g>
	<path fill-rule="evenodd" fill="#999999" d="M11.36,10.44c0-2.91,2.35-5.26,5.26-5.26c2.909,0,5.26,2.35,5.26,5.26
		c0,2.91-2.351,5.26-5.26,5.26C13.71,15.7,11.36,13.35,11.36,10.44z M4.63,1.67C3.18,1.67,2,2.85,2,4.3V16.57
		c0,1.449,1.18,2.63,2.63,2.63h18.13c1.45,0,2.631-1.181,2.631-2.63V4.3c0-1.45-1.181-2.63-2.631-2.63H12.31
		c-0.35-0.69-1.06-1.17-1.89-1.17H7.61c-0.83,0-1.54,0.48-1.89,1.17H4.63z M13.7,10.44c0,1.61,1.31,2.919,2.92,2.919
		s2.92-1.31,2.92-2.919c0-1.62-1.31-2.93-2.92-2.93S13.7,8.82,13.7,10.44z"/>
</g>
</svg>
