<?xml version="1.0" encoding="utf-8"?>
<!-- Generator: Adobe Illustrator 16.0.0, SVG Export Plug-In . SVG Version: 6.00 Build 0)  -->
<svg version="1.2" baseProfile="tiny" id="Capa_1" xmlns="http://www.w3.org/2000/svg" xmlns:xlink="http://www.w3.org/1999/xlink"
	 x="0px" y="0px" width="27px" height="20px" viewBox="0 0 27 20" xml:space="preserve">
<g>
	<path fill-rule="evenodd" fill="#548197" d="M5.63,9.94c0-2.8,2.27-5.06,5.07-5.06c2.81,0,5.069,2.26,5.069,5.06
		c0,2.81-2.26,5.07-5.069,5.07C7.9,15.01,5.63,12.75,5.63,9.94z M2.53,1.5C1.14,1.5,0,2.64,0,4.03v11.82
		c0,1.4,1.14,2.541,2.53,2.541h15.21c1.4,0,2.539-1.141,2.539-2.541v-3.09h2.451l4.31,3.37V3.75l-4.31,3.38h-2.451v-3.1
		c0-1.39-1.139-2.53-2.539-2.53H2.53z M13.52,9.94L9.01,7.13v5.63L13.52,9.94z"/>
</g>
</svg>
