<?xml version="1.0" encoding="utf-8"?>
<!-- Generator: Adobe Illustrator 16.0.0, SVG Export Plug-In . SVG Version: 6.00 Build 0)  -->
<svg version="1.2" baseProfile="tiny" id="Capa_1" xmlns="http://www.w3.org/2000/svg" xmlns:xlink="http://www.w3.org/1999/xlink"
	 x="0px" y="0px" width="20px" height="20px" viewBox="0 0 20 20" xml:space="preserve">
<g>
	<path fill-rule="evenodd" fill="#19475F" d="M8.995,8.79l-0.69,3.171l4.029,0.049l5.801-6.32l-2.93-2.96L8.995,8.79z M3.295,0.31
		c-1.65,0-2.98,1.3-2.98,2.91v13.561c0,1.619,1.33,2.908,2.98,2.908h8.93c1.65,0,2.98-1.289,2.98-2.908v-4.342l-0.93,1.121H6.365
		l0.26-1.141h-2.59v-1.21h2.88L7.185,10h-3.15V8.79h3.44l0.3-1.21h-3.74V6.37h4.36l3.089-3V0.31H3.295z M15.824,2.14l2.93,2.95
		l0.932-0.84l-3.102-3.01L15.824,2.14z"/>
</g>
</svg>
