<?xml version="1.0" encoding="utf-8"?>
<!-- Generator: Adobe Illustrator 16.0.0, SVG Export Plug-In . SVG Version: 6.00 Build 0)  -->
<svg version="1.2" baseProfile="tiny" id="Capa_1" xmlns="http://www.w3.org/2000/svg" xmlns:xlink="http://www.w3.org/1999/xlink"
	 x="0px" y="0px" width="19px" height="19px" viewBox="0 0 19 19" xml:space="preserve">
<g>
	<path fill-rule="evenodd" fill="#19475F" d="M8.526,8.328l-0.668,3.071l3.904,0.049l5.621-6.123l-2.84-2.868L8.526,8.328z
		 M3.004,0.112c-1.599,0-2.887,1.259-2.887,2.819V16.07c0,1.568,1.289,2.818,2.887,2.818h8.652c1.6,0,2.887-1.25,2.887-2.818v-4.207
		l-0.9,1.086H5.978l0.252-1.105H3.721v-1.172h2.79L6.773,9.5H3.721V8.328h3.333l0.291-1.172H3.721V5.983h4.224l2.994-2.907V0.112
		H3.004z M15.143,1.885l2.84,2.858l0.9-0.813l-3.004-2.916L15.143,1.885z"/>
</g>
</svg>
