<?xml version="1.0" encoding="utf-8"?>
<!-- Generator: Adobe Illustrator 16.0.0, SVG Export Plug-In . SVG Version: 6.00 Build 0)  -->
<svg version="1.2" baseProfile="tiny" id="Capa_1" xmlns="http://www.w3.org/2000/svg" xmlns:xlink="http://www.w3.org/1999/xlink"
	 x="0px" y="0px" width="32px" height="32px" viewBox="0 0 32 32" xml:space="preserve">
<g opacity=".5">
	<path d="M25.478,4.133l4.569,4.608L31.5,7.419l-4.841-4.685L25.478,4.133z M5.927,1.281c-2.574,0-4.646,2.022-4.646,4.534v21.152
		c0,2.512,2.072,4.533,4.646,4.533h13.938c2.574,0,4.645-2.021,4.645-4.533v-6.78l-1.451,1.756H10.728l0.405-1.774H7.088v-1.889
		h4.491l0.427-1.889H7.088v-1.889h5.363l0.463-1.889H7.088v-1.889h6.794l4.82-4.667V1.281H5.927z M14.83,14.502l-1.083,4.949
		l6.292,0.075l9.041-9.86l-4.57-4.607L14.83,14.502z"/>
</g>
<g>
	<path fill-rule="evenodd" fill="#ffffff" d="M24.696,3.352l4.57,4.609l1.452-1.322l-4.84-4.684L24.696,3.352z M5.146,0.5
		C2.571,0.5,0.5,2.522,0.5,5.034v21.152c0,2.512,2.071,4.533,4.646,4.533h13.938c2.574,0,4.645-2.021,4.645-4.533v-6.779
		l-1.451,1.756H9.946l0.405-1.775H6.307v-1.889h4.491l0.427-1.889H6.307v-1.889h5.364l0.462-1.889H6.307V9.943h6.794l4.82-4.666V0.5
		H5.146z M14.049,13.721l-1.082,4.949l6.291,0.076l9.041-9.861l-4.57-4.607L14.049,13.721z"/>
</g>
</svg>
