<?xml version="1.0" encoding="utf-8"?>
<!-- Generator: Adobe Illustrator 16.0.0, SVG Export Plug-In . SVG Version: 6.00 Build 0)  -->
<!DOCTYPE svg PUBLIC "-//W3C//DTD SVG 1.1//EN" "http://www.w3.org/Graphics/SVG/1.1/DTD/svg11.dtd">
<svg version="1.1" id="Capa_1" xmlns="http://www.w3.org/2000/svg" xmlns:xlink="http://www.w3.org/1999/xlink" x="0px" y="0px"
	 width="23px" height="21px" viewBox="-0.5 0.5 23 21" enable-background="new -0.5 0.5 23 21" xml:space="preserve">
	<g opacity=".3">
		<path d="M10.408,10.203l-0.684,3.141l3.991,0.049l5.748-6.261l-2.9-2.932L10.408,10.203z M4.761,1.802
			c-1.635,0-2.953,1.288-2.953,2.883v13.434C1.808,19.723,3.126,21,4.761,21h8.848c1.637,0,2.953-1.277,2.953-2.881v-4.301
			l-0.922,1.108H7.802l0.258-1.13H5.494V12.6h2.853l0.268-1.198H5.494v-1.2h3.408l0.297-1.198H5.494V7.806h4.32l3.061-2.972V1.802
			H4.761z M17.175,3.615l2.903,2.922L21,5.706l-3.072-2.981L17.175,3.615z"/>
	</g>
	<g>
		<path fill="#DDDDDD" d="M9.602,9.4l-0.685,3.141l3.992,0.05l5.747-6.261l-2.902-2.933L9.602,9.4z M3.953,1
			C2.318,1,1,2.288,1,3.883v13.434C1,18.921,2.318,20.2,3.953,20.2h8.848c1.635,0,2.953-1.278,2.953-2.884v-4.301l-0.922,1.11H6.994
			l0.258-1.13H4.686v-1.198H7.54l0.268-1.199H4.686V9.4h3.408l0.297-1.199H4.686V7.003h4.32l3.063-2.972V1H3.953z M16.367,2.813
			l2.902,2.922l0.922-0.832L17.12,1.921L16.367,2.813z"/>
	</g>
</svg>
