<?xml version="1.0" encoding="utf-8"?>
<!-- Generator: Adobe Illustrator 16.0.0, SVG Export Plug-In . SVG Version: 6.00 Build 0)  -->
<svg version="1.2" baseProfile="tiny" id="Capa_1" xmlns="http://www.w3.org/2000/svg" xmlns:xlink="http://www.w3.org/1999/xlink"
	 x="0px" y="0px" width="24px" height="28px" viewBox="0 0 24 28" xml:space="preserve">
<g>
	<path fill="#183248" d="M21.8,0H2.2C0.98,0,0,1,0,2.23v19.62c0,1.23,0.98,2.23,2.2,2.23h1.71v-6.84c-1.19-0.03-2.14-1.01-2.14-2.23
		V3.92c0-1.23,0.98-2.23,2.19-2.23h10.95c1.21,0,2.199,1,2.199,2.23v11.09c0,1.23-0.989,2.23-2.199,2.23H5.34v6.84H21.8
		c1.22,0,2.2-1,2.2-2.23V2.23C24,1,23.02,0,21.8,0z"/>
	<path fill="#CC4442" d="M12.98,28V10.81c0-0.74-0.59-1.34-1.32-1.34h-5c-0.73,0-1.32,0.6-1.32,1.34V28H12.98z"/>
</g>
</svg>
