<?xml version="1.0" encoding="utf-8"?>
<!-- Generator: Adobe Illustrator 16.0.0, SVG Export Plug-In . SVG Version: 6.00 Build 0)  -->
<svg version="1.2" baseProfile="tiny" id="Capa_1" xmlns="http://www.w3.org/2000/svg" xmlns:xlink="http://www.w3.org/1999/xlink"
	 x="0px" y="0px" width="16px" height="16px" viewBox="0 0 16 16" xml:space="preserve">
<g>
	<path fill-rule="evenodd" fill="#3F5765" d="M3,0h10c1.66,0,3,1.34,3,3v10c0,1.66-1.34,3-3,3H3c-1.66,0-3-1.34-3-3V3
		C0,1.34,1.34,0,3,0z"/>
	<path fill-rule="evenodd" fill="#FFFFFF" d="M12.59,8.9H9.98v7h-3v-7H5.54V6.61h1.44V5.12c0-2.02,0.88-3.22,3.25-3.22h2.74v2.48
		h-2.24c-0.66,0-0.74,0.35-0.74,0.99L9.98,6.61h3L12.59,8.9z"/>
</g>
</svg>
