<?xml version="1.0" encoding="utf-8"?>
<!-- Generator: Adobe Illustrator 16.0.0, SVG Export Plug-In . SVG Version: 6.00 Build 0)  -->
<svg version="1.2" baseProfile="tiny" id="Capa_1" xmlns="http://www.w3.org/2000/svg" xmlns:xlink="http://www.w3.org/1999/xlink"
	 x="0px" y="0px" width="24px" height="28px" viewBox="0 0 24 28" xml:space="preserve">
<path fill-rule="evenodd" fill="#3F5765" d="M20.4,12h-3.9v10.501H12V12H9.83V8.56H12V6.33c0-3.03,1.311-4.83,4.87-4.83h4.11v3.71
	h-3.36c-0.99,0-1.12,0.52-1.12,1.49v1.86H21L20.4,12z M20,0H4C1.8,0,0,1.8,0,4v16.001C0,22.2,1.8,24,4,24h16c2.2,0,4-1.8,4-4.009V4
	C24,1.8,22.2,0,20,0z"/>
</svg>
