<?xml version="1.0" encoding="utf-8"?>
<!-- Generator: Adobe Illustrator 16.0.0, SVG Export Plug-In . SVG Version: 6.00 Build 0)  -->
<svg version="1.2" baseProfile="tiny" id="Capa_1" xmlns="http://www.w3.org/2000/svg" xmlns:xlink="http://www.w3.org/1999/xlink"
	 x="0px" y="0px" width="32px" height="32px" viewBox="0 0 32 32" xml:space="preserve">
<path fill-rule="evenodd" fill="#FFFFFF" d="M27,0H5C2.23,0,0,2.315,0,5.075v21.851C0,29.686,2.23,32,5,32h22
	c2.76,0,5-2.314,5-5.074V5.075C32,2.315,29.76,0,27,0z M24.98,18H20v14h-6V18h-3v-5h3v-2.585C14,6.395,15.52,4,20.27,4H26v5h-4.73
	c-1.33,0-1.49,0.47-1.49,1.75L19.77,13h6L24.98,18z"/>
</svg>
