<?xml version="1.0" encoding="utf-8"?>
<!-- Generator: Adobe Illustrator 16.0.0, SVG Export Plug-In . SVG Version: 6.00 Build 0)  -->
<svg version="1.2" baseProfile="tiny" id="Capa_1" xmlns="http://www.w3.org/2000/svg" xmlns:xlink="http://www.w3.org/1999/xlink"
	 x="0px" y="0px" width="32px" height="32px" viewBox="0 0 32 32" xml:space="preserve">
<g opacity=".5">
	<path fill-rule="evenodd" d="M16.5,17.267c0,2.113,1.715,3.827,3.828,3.827s3.828-1.714,3.828-3.827
		c0-2.112-1.715-3.829-3.828-3.829S16.5,15.154,16.5,17.267z M4.633,5.782c-1.898,0-3.445,1.546-3.445,3.445v16.078
		c0,1.899,1.547,3.446,3.445,3.446h23.734c1.898,0,3.445-1.547,3.445-3.446V9.227c0-1.898-1.547-3.445-3.445-3.445H14.692
		c-0.459-0.904-1.392-1.533-2.48-1.533H8.537c-1.086,0-2.021,0.629-2.48,1.533H4.633z M13.438,17.267
		c0-3.814,3.077-6.892,6.891-6.892s6.891,3.078,6.891,6.892c0,3.812-3.077,6.89-6.891,6.89S13.438,21.078,13.438,17.267z"/>
</g>
<g>
	<path fill-rule="evenodd" fill="#ffffff" d="M15.5,16.267c0,2.113,1.715,3.827,3.828,3.827s3.828-1.714,3.828-3.827
		c0-2.112-1.715-3.829-3.828-3.829S15.5,14.154,15.5,16.267z M3.633,4.782c-1.898,0-3.445,1.546-3.445,3.445v16.078
		c0,1.899,1.547,3.446,3.445,3.446h23.734c1.898,0,3.445-1.547,3.445-3.446V8.227c0-1.898-1.547-3.445-3.445-3.445H13.692
		c-0.459-0.904-1.392-1.533-2.48-1.533H7.537c-1.086,0-2.021,0.629-2.48,1.533H3.633z M12.438,16.267
		c0-3.814,3.077-6.892,6.891-6.892s6.891,3.078,6.891,6.892c0,3.812-3.077,6.89-6.891,6.89S12.438,20.078,12.438,16.267z"/>
</g>
</svg>
