<?xml version="1.0" encoding="utf-8"?>
<!-- Generator: Adobe Illustrator 16.0.0, SVG Export Plug-In . SVG Version: 6.00 Build 0)  -->
<!DOCTYPE svg PUBLIC "-//W3C//DTD SVG 1.1//EN" "http://www.w3.org/Graphics/SVG/1.1/DTD/svg11.dtd">
<svg version="1.1" id="Capa_1" xmlns="http://www.w3.org/2000/svg" xmlns:xlink="http://www.w3.org/1999/xlink" x="0px" y="0px"
	 width="23px" height="21px" viewBox="-0.5 0.5 23 21" enable-background="new -0.5 0.5 23 21" xml:space="preserve">
	<g opacity=".5">
		<path d="M9.558,11.916c0-2.49,1.91-4.5,4.28-4.5c2.36,0,4.271,2.01,4.271,4.5s-1.91,4.5-4.271,4.5
			C11.468,16.416,9.558,14.406,9.558,11.916z M4.098,4.417c-1.18,0-2.14,1.01-2.14,2.25v10.5c0,1.24,0.96,2.25,2.14,2.25h14.718
			c1.182,0,2.142-1.01,2.142-2.25v-10.5c0-1.24-0.96-2.25-2.142-2.25h-8.479c-0.29-0.59-0.86-1-1.54-1H6.519
			c-0.67,0-1.25,0.41-1.541,1H4.098z M11.458,11.916c0,1.381,1.062,2.5,2.38,2.5c1.311,0,2.37-1.119,2.37-2.5
			c0-1.379-1.062-2.5-2.37-2.5C12.52,9.417,11.458,10.537,11.458,11.916z"/>
	</g>
	<g>
		<path fill="#DDDDDD" d="M8.642,11.083c0-2.49,1.91-4.5,4.28-4.5c2.36,0,4.271,2.01,4.271,4.5c0,2.491-1.91,4.5-4.271,4.5
			C10.552,15.584,8.642,13.574,8.642,11.083z M3.182,3.583c-1.18,0-2.14,1.01-2.14,2.25v10.5c0,1.24,0.96,2.25,2.14,2.25H17.9
			c1.182,0,2.142-1.01,2.142-2.25v-10.5c0-1.24-0.96-2.25-2.142-2.25H9.422c-0.29-0.59-0.86-1-1.54-1H5.603
			c-0.67,0-1.25,0.41-1.541,1H3.182z M10.542,11.083c0,1.379,1.062,2.5,2.38,2.5c1.311,0,2.37-1.121,2.37-2.5
			c0-1.38-1.062-2.5-2.37-2.5C11.604,8.583,10.542,9.704,10.542,11.083z"/>
	</g>
</svg>
