<?xml version="1.0" encoding="utf-8"?>
<!-- Generator: Adobe Illustrator 16.0.0, SVG Export Plug-In . SVG Version: 6.00 Build 0)  -->
<svg version="1.2" baseProfile="tiny" id="Capa_1" xmlns="http://www.w3.org/2000/svg" xmlns:xlink="http://www.w3.org/1999/xlink"
	 x="0px" y="0px" width="19px" height="16px" viewBox="0 0 19 16" xml:space="preserve">
<g>
	<path fill-rule="evenodd" fill="#19475F" d="M7.694,8.5c0-2.49,1.91-4.5,4.28-4.5c2.36,0,4.271,2.01,4.271,4.5s-1.91,4.5-4.271,4.5
		C9.604,13,7.694,10.99,7.694,8.5z M2.234,1c-1.18,0-2.14,1.01-2.14,2.25v10.5c0,1.24,0.96,2.25,2.14,2.25h14.719
		c1.181,0,2.141-1.01,2.141-2.25V3.25c0-1.24-0.96-2.25-2.141-2.25H8.474c-0.29-0.59-0.86-1-1.54-1h-2.28c-0.67,0-1.25,0.41-1.54,1
		H2.234z M9.594,8.5c0,1.38,1.061,2.5,2.38,2.5c1.31,0,2.37-1.12,2.37-2.5S13.283,6,11.974,6C10.654,6,9.594,7.12,9.594,8.5z"/>
</g>
</svg>
