<?xml version="1.0" encoding="utf-8"?>
<!-- Generator: Adobe Illustrator 16.0.0, SVG Export Plug-In . SVG Version: 6.00 Build 0)  -->
<svg version="1.2" baseProfile="tiny" id="Capa_1" xmlns="http://www.w3.org/2000/svg" xmlns:xlink="http://www.w3.org/1999/xlink"
	 x="0px" y="0px" width="24px" height="24px" viewBox="0 0 24 24" xml:space="preserve">
<path fill-rule="evenodd" fill="#CC3636" d="M5,0h14c2.76,0,5,2.24,5,5v14c0,2.76-2.24,5-5,5H5c-2.76,0-5-2.24-5-5V5
	C0,2.24,2.24,0,5,0z"/>
<g>
	<path fill="#FFFFFF" d="M5.41,5.07h13.199c0.24,0,0.471,0.06,0.681,0.15l-7.28,8.68L4.74,5.22C4.95,5.13,5.18,5.07,5.41,5.07z"/>
	<path fill="#FFFFFF" d="M3.76,16.891V6.76v-0.1l4.84,5.77l-4.78,4.89C3.78,17.18,3.76,17.04,3.76,16.891z"/>
	<path fill="#FFFFFF" d="M18.609,18.57H5.41c-0.14,0-0.29-0.021-0.43-0.051l4.7-4.81l2.33,2.79l2.33-2.79l4.7,4.81
		C18.9,18.55,18.76,18.57,18.609,18.57z"/>
	<path fill="#FFFFFF" d="M20.26,16.891c0,0.149-0.02,0.289-0.06,0.43l-4.78-4.89l4.84-5.77v0.1V16.891z"/>
</g>
</svg>
