<?xml version="1.0" encoding="utf-8"?>
<!-- Generator: Adobe Illustrator 16.0.0, SVG Export Plug-In . SVG Version: 6.00 Build 0)  -->
<svg version="1.2" baseProfile="tiny" id="Capa_1" xmlns="http://www.w3.org/2000/svg" xmlns:xlink="http://www.w3.org/1999/xlink"
	 x="0px" y="0px" width="17px" height="17px" viewBox="0 0 17 17" xml:space="preserve">
<g opacity="0.3">
<path fill-rule="evenodd" d="M10,9.4V4H8v6.5l3.7,2L13,11L10,9.4z M9,15c-3.31,0-6-2.689-6-6c0-3.31,2.69-6,6-6c3.311,0,6,2.69,6,6
	C15,12.311,12.311,15,9,15z M9,1C4.58,1,1,4.58,1,9s3.58,8,8,8s8-3.58,8-8S13.42,1,9,1z"/>
</g>
<path fill-rule="evenodd" fill="#FFFFFF" d="M9,8.725v-5.4H7v6.5l3.7,2l1.3-1.5L9,8.725z M8,14.325c-3.31,0-6-2.689-6-6
	c0-3.31,2.69-6,6-6c3.311,0,6,2.69,6,6C14,11.636,11.311,14.325,8,14.325z M8,0.325c-4.42,0-8,3.58-8,8s3.58,8,8,8s8-3.58,8-8
	S12.42,0.325,8,0.325z"/>
</svg>
