<?xml version="1.0" encoding="utf-8"?>
<!-- Generator: Adobe Illustrator 16.0.0, SVG Export Plug-In . SVG Version: 6.00 Build 0)  -->
<svg version="1.2" baseProfile="tiny" id="Capa_1" xmlns="http://www.w3.org/2000/svg" xmlns:xlink="http://www.w3.org/1999/xlink"
	 x="0px" y="0px" width="300px" height="63px" viewBox="0 0 300 63" xml:space="preserve">
<g>
	<g>
		<path fill-rule="evenodd" fill="#183248" d="M66.92,27.59h7.8c-0.1-1.38-0.46-2.41-1.07-3.07c-0.66-0.71-1.61-1.08-2.83-1.08
			c-1.12,0-2.04,0.37-2.75,1.08C67.35,25.23,66.97,26.26,66.92,27.59z M76.09,33.561h3.82c-0.56,2.149-1.63,3.789-3.2,4.91
			c-1.59,1.17-3.57,1.76-5.97,1.76c-2.9,0-5.17-0.94-6.8-2.83c-1.63-1.84-2.44-4.48-2.44-7.9c0-3.27,0.79-5.83,2.37-7.66
			c1.63-1.89,3.89-2.84,6.8-2.84c3.06,0,5.42,0.92,7.1,2.76c1.63,1.89,2.45,4.52,2.45,7.89v0.54v0.31c0,0.25-0.02,0.43-0.08,0.53
			H66.92c0.05,1.59,0.43,2.76,1.15,3.531c0.66,0.819,1.65,1.229,2.98,1.229c0.87,0,1.6-0.181,2.21-0.54
			c0.16-0.05,0.3-0.141,0.43-0.27l0.42-0.42c0.05-0.15,0.24-0.36,0.57-0.61C75.01,33.689,75.48,33.561,76.09,33.561z"/>
		<path fill-rule="evenodd" fill="#183248" d="M83.79,13.48h2.75c0.72,0,1.33,0.25,1.84,0.73c0.51,0.49,0.76,1.09,0.76,1.8v23.84
			h-5.35V13.48z"/>
		<path fill-rule="evenodd" fill="#CC4442" d="M97.68,29.73c0,1.84,0.38,3.299,1.15,4.37c0.76,1.08,1.8,1.61,3.13,1.61
			c1.43,0,2.52-0.53,3.29-1.61c0.76-0.97,1.14-2.419,1.14-4.37c0-1.99-0.36-3.52-1.07-4.6c-0.76-1.07-1.83-1.61-3.2-1.61
			c-1.43,0-2.53,0.54-3.29,1.61C98.06,26.21,97.68,27.74,97.68,29.73z M106.39,44.75v-7.59c-0.66,1.08-1.48,1.869-2.44,2.38
			c-1.02,0.46-2.14,0.69-3.36,0.69c-2.45,0-4.41-0.971-5.89-2.91c-1.48-1.891-2.21-4.5-2.21-7.82c0-3.17,0.73-5.72,2.21-7.66
			c0.76-0.92,1.78-1.62,3.06-2.11c1.27-0.49,2.57-0.73,3.9-0.73c2.44,0,4.71,0.65,6.8,1.96c2.08,1.3,3.13,3.74,3.13,7.32v19.08h-2.6
			c-0.71,0-1.32-0.26-1.83-0.77C106.65,46.08,106.39,45.471,106.39,44.75z"/>
		<path fill-rule="evenodd" fill="#CC4442" d="M133.09,19.46v11.96c0,3.63-0.95,6-2.83,7.12c-1.88,1.13-3.95,1.69-6.19,1.69
			c-2.19-0.101-4.19-0.711-6-1.84c-1.81-1.121-2.71-3.451-2.71-6.971V19.46h5.35v13.03c0,1.23,0.36,2.119,1.07,2.689
			c0.71,0.561,1.53,0.84,2.44,0.84c0.92,0,1.75-0.279,2.49-0.84c0.74-0.57,1.1-1.459,1.1-2.689V22.07c0-0.72,0.25-1.33,0.73-1.84
			c0.49-0.51,1.11-0.77,1.87-0.77H133.09z"/>
		<path fill-rule="evenodd" fill="#CC4442" d="M137.24,19.46h2.75c0.71,0,1.33,0.26,1.83,0.77c0.51,0.51,0.77,1.12,0.77,1.84v17.78
			h-5.35V19.46z M137.24,13.48h2.75c0.71,0,1.33,0.26,1.83,0.77c0.51,0.51,0.77,1.12,0.77,1.84v1.61h-5.35V13.48z"/>
		<path fill-rule="evenodd" fill="#CC4442" d="M163.939,39.85h-2.68c-0.76,0-1.39-0.24-1.869-0.729
			c-0.48-0.49-0.721-1.11-0.721-1.88V26.82c0-1.23-0.37-2.12-1.109-2.68c-0.74-0.57-1.57-0.85-2.49-0.85
			c-0.91,0-1.73,0.28-2.44,0.85c-0.72,0.56-1.069,1.45-1.069,2.68v13.03h-5.351V27.89c0-3.47,0.9-5.8,2.71-6.97
			c1.81-1.18,3.811-1.81,6-1.92c2.24,0,4.311,0.59,6.189,1.76c1.881,1.18,2.83,3.55,2.83,7.13V39.85z"/>
		<path fill-rule="evenodd" fill="#CC4442" d="M176.51,39.85c-1.68,0.101-3.51,0.07-5.47-0.08c-1.96-0.149-2.94-1.399-2.94-3.75
			V13.48h2.75c0.66,0,1.25,0.26,1.76,0.77c0.511,0.51,0.771,1.12,0.771,1.84v3.45h3.13v1.07c0,0.77-0.26,1.4-0.77,1.88
			c-0.51,0.49-1.12,0.73-1.83,0.73h-0.53v11.34c0,0.869,0.5,1.299,1.521,1.299h1.609V39.85z"/>
		<path fill-rule="evenodd" fill="#CC4442" d="M185.25,24.52c-1.07,1.18-1.561,2.92-1.45,5.25c0.101,2.33,0.53,3.951,1.29,4.871
			c0.311,0.409,0.85,0.75,1.61,1.029c0.771,0.28,1.54,0.311,2.329,0.08c0.791-0.23,1.49-0.811,2.101-1.73s0.94-2.399,1-4.439
			c0-1.84-0.29-3.22-0.88-4.14s-1.26-1.51-2.029-1.77c-0.761-0.25-1.521-0.26-2.291-0.03C186.17,23.87,185.609,24.16,185.25,24.52z
			 M181.58,38.01c-1.07-0.92-1.83-2.16-2.29-3.72s-0.69-3.18-0.69-4.86c0-1.39,0.19-2.77,0.58-4.14c0.381-1.38,0.98-2.53,1.791-3.45
			c1.319-1.54,3.029-2.44,5.119-2.72c2.09-0.28,3.98-0.12,5.65,0.5c1.939,0.76,3.359,2.09,4.279,3.98
			c0.871,1.69,1.301,3.65,1.301,5.9c0,1.64-0.17,3.04-0.53,4.221c-0.36,1.17-0.819,2.17-1.38,2.989
			c-1.221,1.681-2.77,2.729-4.66,3.14c-1.68,0.461-3.38,0.5-5.08,0.11C183.96,39.58,182.6,38.93,181.58,38.01z"/>
		<path fill-rule="evenodd" fill="#183248" d="M214.54,29.73c0-1.99-0.38-3.52-1.14-4.6c-0.76-1.07-1.86-1.61-3.291-1.61
			c-1.369,0-2.439,0.54-3.209,1.61c-0.711,0.97-1.07,2.51-1.07,4.6c0,1.95,0.391,3.4,1.15,4.37c0.76,1.08,1.859,1.61,3.279,1.61
			c1.33,0,2.381-0.53,3.141-1.61C214.16,33.029,214.54,31.57,214.54,29.73z M205.83,44.75c0,0.721-0.25,1.33-0.76,1.84
			s-1.12,0.77-1.83,0.77h-2.6V28.28c0-3.58,1.039-6.02,3.129-7.32c2.09-1.31,4.36-1.96,6.801-1.96c1.27,0,2.56,0.24,3.859,0.73
			c1.301,0.49,2.33,1.19,3.1,2.11c1.521,1.99,2.291,4.54,2.291,7.66c0,3.221-0.771,5.82-2.291,7.82
			c-1.539,1.939-3.489,2.91-5.889,2.91c-1.271,0-2.391-0.23-3.361-0.69c-1.02-0.511-1.829-1.3-2.449-2.38V44.75z"/>
		<path fill-rule="evenodd" fill="#183248" d="M229.29,24.52c-1.069,1.18-1.56,2.92-1.45,5.25c0.1,2.33,0.53,3.951,1.29,4.871
			c0.31,0.409,0.851,0.75,1.61,1.029c0.76,0.28,1.539,0.311,2.33,0.08c0.789-0.23,1.49-0.811,2.1-1.73s0.95-2.399,0.99-4.439
			c0-1.84-0.29-3.22-0.87-4.14c-0.59-0.92-1.261-1.51-2.03-1.77c-0.76-0.25-1.529-0.26-2.289-0.03
			C230.2,23.87,229.641,24.16,229.29,24.52z M225.62,38.01c-1.07-0.92-1.83-2.16-2.29-3.72s-0.689-3.18-0.689-4.86
			c0-1.39,0.189-2.77,0.58-4.14c0.379-1.38,0.969-2.53,1.789-3.45c1.32-1.54,3.03-2.44,5.12-2.72c2.091-0.28,3.97-0.12,5.649,0.5
			c1.941,0.76,3.361,2.09,4.281,3.98c0.869,1.69,1.299,3.65,1.299,5.9c0,1.64-0.18,3.04-0.529,4.221
			c-0.359,1.17-0.82,2.17-1.38,2.989c-1.22,1.681-2.78,2.729-4.66,3.14c-1.681,0.461-3.38,0.5-5.08,0.11
			C228,39.58,226.641,38.93,225.62,38.01z"/>
		<path fill-rule="evenodd" fill="#183248" d="M249.33,29.5c0,2.05,0.38,3.6,1.15,4.68c0.76,1.07,1.85,1.61,3.279,1.61
			c1.381,0,2.45-0.54,3.211-1.61c0.719-1.08,1.069-2.63,1.069-4.68c0-1.84-0.38-3.29-1.149-4.37c-0.811-1.02-1.9-1.53-3.281-1.53
			c-1.33,0-2.369,0.54-3.129,1.61C249.71,26.23,249.33,27.66,249.33,29.5z M258.04,13.41h2.601c0.709,0,1.319,0.27,1.83,0.8
			c0.51,0.54,0.77,1.14,0.77,1.8v14.95c0,3.63-1.051,6.08-3.131,7.351c-2.09,1.289-4.359,1.92-6.799,1.92
			c-1.33,0-2.631-0.221-3.9-0.65c-1.28-0.43-2.301-1.141-3.061-2.109c-1.479-1.891-2.22-4.471-2.22-7.741c0-3.22,0.74-5.8,2.22-7.74
			C247.88,20,249.84,19,252.24,19c1.27,0,2.39,0.26,3.359,0.77c1.021,0.61,1.83,1.4,2.44,2.37V13.41z"/>
		<path fill-rule="evenodd" fill="#183248" d="M271.811,27.59h7.789c-0.1-1.38-0.459-2.41-1.07-3.07
			c-0.659-0.71-1.6-1.08-2.829-1.08c-1.12,0-2.03,0.37-2.75,1.08C272.24,25.23,271.859,26.26,271.811,27.59z M280.98,33.561h3.819
			c-0.56,2.149-1.63,3.789-3.21,4.91c-1.58,1.17-3.57,1.76-5.96,1.76c-2.909,0-5.17-0.94-6.81-2.83c-1.62-1.84-2.44-4.48-2.44-7.9
			c0-3.27,0.79-5.83,2.37-7.66c1.63-1.89,3.9-2.84,6.8-2.84c3.06,0,5.431,0.92,7.11,2.76c1.63,1.89,2.449,4.52,2.449,7.89v0.54v0.31
			c0,0.25-0.029,0.43-0.08,0.53h-13.219c0.049,1.59,0.43,2.76,1.14,3.531c0.659,0.819,1.659,1.229,2.979,1.229
			c0.87,0,1.61-0.181,2.221-0.54c0.149-0.05,0.289-0.141,0.42-0.27l0.42-0.42c0.05-0.15,0.24-0.36,0.57-0.61
			C279.9,33.689,280.37,33.561,280.98,33.561z"/>
		<path fill-rule="evenodd" fill="#183248" d="M288.34,39.85v-9.89c0-1.99,0.29-3.66,0.881-5.02c0.579-1.35,1.379-2.44,2.399-3.26
			c0.97-0.76,2.11-1.33,3.409-1.68c1.301-0.36,2.631-0.54,4.011-0.54h0.38h0.38v5.44h-1.76c-1.47,0-2.569,0.36-3.28,1.08
			c-0.71,0.71-1.07,1.84-1.07,3.37v10.5H288.34z"/>
	</g>
	<path fill="#183248" d="M46.86,0.5H4.73C2.12,0.5,0,2.62,0,5.24v41.74c0,2.619,2.12,4.74,4.73,4.74h3.68V37.17
		c-2.56-0.07-4.62-2.16-4.62-4.73V8.84c0-2.62,2.12-4.74,4.73-4.74h23.53c2.61,0,4.72,2.12,4.72,4.74v23.6
		c0,2.61-2.11,4.74-4.72,4.74H11.48v14.541h35.38c2.61,0,4.73-2.121,4.73-4.74V5.24C51.59,2.62,49.47,0.5,46.86,0.5z"/>
	<path fill="#CC4442" d="M27.91,60.061V23.48c0-1.57-1.27-2.84-2.84-2.84H14.31c-1.56,0-2.83,1.27-2.83,2.84v36.581H27.91z"/>
	<g>
		<path fill-rule="evenodd" fill="#666666" d="M162.189,55.77c0,1.931,0.9,3.83,3.051,3.83s3.06-1.899,3.06-3.83
			c0-1.939-0.909-3.84-3.06-3.84S162.189,53.83,162.189,55.77z M170.05,55.77c0,2.881-1.8,5.271-4.81,5.271s-4.811-2.39-4.811-5.271
			c0-2.879,1.801-5.279,4.811-5.279S170.05,52.891,170.05,55.77z"/>
		<path fill-rule="evenodd" fill="#666666" d="M174.84,54.58c-1.35,0-2.04,1.029-2.04,2.58c0,1.47,0.75,2.57,2.04,2.57
			c1.471,0,2.01-1.301,2.01-2.57C176.85,55.84,176.16,54.58,174.84,54.58z M171.25,53.51h1.52v0.99h0.03
			c0.45-0.83,1.32-1.189,2.25-1.189c2.29,0,3.41,1.75,3.41,3.879c0,1.961-0.979,3.811-3.14,3.811c-0.93,0-1.93-0.34-2.43-1.141
			h-0.031V63.5h-1.609V53.51z"/>
		<path fill-rule="evenodd" fill="#666666" d="M179.55,53.51h1.61v7.29h-1.61V53.51z M179.55,50.73h1.61v1.52h-1.61V50.73z"/>
		<path fill-rule="evenodd" fill="#666666" d="M182.57,53.51h1.52v1.07l0.03,0.029c0.479-0.799,1.31-1.299,2.26-1.299
			c1.58,0,2.58,0.85,2.58,2.489v5h-1.601v-4.579c-0.029-1.141-0.479-1.641-1.42-1.641c-1.08,0-1.76,0.85-1.76,1.92v4.3h-1.609V53.51
			z"/>
		<path fill-rule="evenodd" fill="#666666" d="M190.38,53.51h1.601v7.29h-1.601V53.51z M190.38,50.73h1.601v1.52h-1.601V50.73z"/>
		<path fill-rule="evenodd" fill="#666666" d="M196.93,50.49h1.9l-1.99,2.01h-1.17L196.93,50.49z M198.811,57.15
			c0-1.26-0.631-2.57-2.07-2.57c-1.44,0-2.07,1.311-2.07,2.57c0,1.27,0.63,2.58,2.07,2.58C198.18,59.73,198.811,58.42,198.811,57.15
			z M193.061,57.15c0-2.23,1.34-3.84,3.68-3.84c2.33,0,3.67,1.609,3.67,3.84c0,2.24-1.34,3.85-3.67,3.85
			C194.4,61,193.061,59.391,193.061,57.15z"/>
		<path fill-rule="evenodd" fill="#666666" d="M201.46,53.51h1.521v1.07l0.02,0.029c0.48-0.799,1.32-1.299,2.27-1.299
			c1.58,0,2.57,0.85,2.57,2.489v5h-1.6v-4.579c-0.03-1.141-0.471-1.641-1.42-1.641c-1.07,0-1.76,0.85-1.76,1.92v4.3h-1.601V53.51z"
			/>
		<path fill-rule="evenodd" fill="#666666" d="M216.18,59.73c1.391,0,2.03-1.041,2.03-2.57c0-1.58-0.7-2.58-2.03-2.58
			s-2.02,1.26-2.02,2.58C214.16,58.43,214.71,59.73,216.18,59.73z M219.76,63.5h-1.6v-3.641h-0.03c-0.5,0.801-1.51,1.141-2.44,1.141
			c-2.149,0-3.129-1.85-3.129-3.811c0-2.129,1.109-3.879,3.399-3.879c0.931,0,1.8,0.359,2.25,1.189h0.03v-0.99h1.52V63.5z"/>
		<path fill-rule="evenodd" fill="#666666" d="M227.57,60.8h-1.58v-1.01h-0.02C225.57,60.52,224.7,61,223.9,61
			c-1.9,0-2.721-0.96-2.721-2.859V53.51h1.61v4.471c0,1.289,0.521,1.75,1.39,1.75c1.34,0,1.791-0.86,1.791-1.99v-4.23h1.6V60.8z"/>
		<path fill-rule="evenodd" fill="#666666" d="M233.96,56.51c-0.05-1.01-0.739-1.93-1.83-1.93c-1.11,0-1.87,0.85-1.909,1.93H233.96z
			 M230.221,57.57c0,1.14,0.619,2.16,1.959,2.16c0.92,0,1.49-0.41,1.771-1.211h1.521c-0.351,1.59-1.701,2.48-3.291,2.48
			c-2.279,0-3.56-1.59-3.56-3.84c0-2.07,1.351-3.85,3.51-3.85c2.3,0,3.71,2.069,3.44,4.26H230.221z"/>
		<path fill-rule="evenodd" fill="#666666" d="M245.17,56.51c-0.061-1.01-0.75-1.93-1.84-1.93c-1.109,0-1.87,0.85-1.91,1.93H245.17z
			 M241.42,57.57c0,1.14,0.62,2.16,1.96,2.16c0.931,0,1.49-0.41,1.771-1.211h1.52c-0.35,1.59-1.699,2.48-3.29,2.48
			c-2.28,0-3.56-1.59-3.56-3.84c0-2.07,1.35-3.85,3.51-3.85c2.3,0,3.71,2.069,3.439,4.26H241.42z"/>
		<path fill-rule="evenodd" fill="#666666" d="M248.96,58.46c0.08,0.931,0.78,1.271,1.64,1.271c0.61,0,1.66-0.131,1.621-0.961
			c-0.041-0.84-1.211-0.939-2.381-1.209c-1.18-0.261-2.33-0.681-2.33-2.16c0-1.59,1.711-2.09,3.04-2.09
			c1.49,0,2.841,0.619,3.03,2.25h-1.67c-0.141-0.771-0.77-0.98-1.48-0.98c-0.459,0-1.32,0.12-1.32,0.75c0,0.79,1.181,0.9,2.361,1.17
			c1.17,0.27,2.359,0.689,2.359,2.13c0,1.74-1.75,2.37-3.25,2.37c-1.84,0-3.2-0.82-3.221-2.54H248.96z"/>
		<path fill-rule="evenodd" fill="#666666" d="M260.721,56.8h3.069l-1.511-4.34h-0.039L260.721,56.8z M261.34,50.73h1.87
			l3.87,10.069h-1.891l-0.939-2.659h-4.01L259.3,60.8h-1.819L261.34,50.73z"/>
		<path fill-rule="evenodd" fill="#666666" d="M272.33,55.95c-0.12-0.89-0.77-1.37-1.66-1.37c-0.83,0-2,0.439-2,2.66
			c0,1.21,0.54,2.49,1.93,2.49c0.93,0,1.58-0.621,1.73-1.67h1.609C273.641,59.96,272.471,61,270.6,61
			c-2.279,0-3.529-1.62-3.529-3.76c0-2.211,1.189-3.93,3.59-3.93c1.68,0,3.119,0.85,3.279,2.64H272.33z"/>
		<path fill-rule="evenodd" fill="#666666" d="M279.88,55.95c-0.12-0.89-0.771-1.37-1.659-1.37c-0.83,0-2,0.439-2,2.66
			c0,1.21,0.539,2.49,1.93,2.49c0.93,0,1.58-0.621,1.729-1.67h1.61C281.189,59.96,280.02,61,278.15,61c-2.28,0-3.53-1.62-3.53-3.76
			c0-2.211,1.19-3.93,3.59-3.93c1.69,0,3.12,0.85,3.28,2.64H279.88z"/>
		<path fill-rule="evenodd" fill="#666666" d="M282.529,53.51h1.611v7.29h-1.611V53.51z M282.529,50.73h1.611v1.52h-1.611V50.73z"/>
		<path fill-rule="evenodd" fill="#666666" d="M289.09,50.49h1.9l-2,2.01h-1.16L289.09,50.49z M290.96,57.15
			c0-1.26-0.63-2.57-2.069-2.57c-1.431,0-2.07,1.311-2.07,2.57c0,1.27,0.64,2.58,2.07,2.58C290.33,59.73,290.96,58.42,290.96,57.15z
			 M285.221,57.15c0-2.23,1.34-3.84,3.67-3.84c2.34,0,3.68,1.609,3.68,3.84c0,2.24-1.34,3.85-3.68,3.85
			C286.561,61,285.221,59.391,285.221,57.15z"/>
		<path fill-rule="evenodd" fill="#666666" d="M293.609,53.51h1.521v1.07l0.03,0.029c0.48-0.799,1.311-1.299,2.27-1.299
			c1.57,0,2.57,0.85,2.57,2.489v5h-1.6v-4.579c-0.03-1.141-0.48-1.641-1.42-1.641c-1.07,0-1.76,0.85-1.76,1.92v4.3h-1.611V53.51z"/>
	</g>
</g>
</svg>
