<?xml version="1.0" encoding="utf-8"?>
<!-- Generator: Adobe Illustrator 16.0.0, SVG Export Plug-In . SVG Version: 6.00 Build 0)  -->
<svg version="1.2" baseProfile="tiny" id="Layer_1" xmlns="http://www.w3.org/2000/svg" xmlns:xlink="http://www.w3.org/1999/xlink"
	 x="0px" y="0px" width="20px" height="10px" viewBox="0 0 20 10" xml:space="preserve">
<path fill="#FFFFFF" d="M9.846,3.904C9.812,3.89,9.774,3.882,9.735,3.882H6.117V0.263c0-0.04-0.009-0.076-0.024-0.108
	C6.053,0.063,5.961,0,5.854,0L4.145,0C4.038,0,3.948,0.063,3.906,0.155C3.891,0.188,3.881,0.224,3.881,0.264l0,3.619L0.263,3.882
	c-0.04,0-0.076,0.01-0.108,0.023C0.063,3.946,0,4.039,0,4.146v1.709c0,0.107,0.063,0.198,0.154,0.24
	c0.034,0.014,0.07,0.022,0.108,0.022h3.619L3.88,9.735c0.001,0.039,0.01,0.076,0.025,0.109C3.946,9.936,4.038,9.999,4.145,10
	l1.708-0.001C5.961,10,6.052,9.936,6.093,9.845c0.016-0.033,0.024-0.07,0.024-0.109V6.117h3.618c0.04-0.001,0.076-0.009,0.109-0.024
	C9.937,6.052,10,5.961,10,5.854V4.145C10,4.037,9.937,3.946,9.846,3.904z"/>
<path fill="#FFFFFF" d="M19.846,3.904c-0.034-0.015-0.071-0.022-0.11-0.022h-9.472c-0.04,0-0.076,0.01-0.108,0.023
	C10.063,3.946,10,4.039,10,4.146v1.709c0,0.107,0.063,0.198,0.154,0.24c0.034,0.014,0.07,0.022,0.108,0.022h9.473
	c0.04-0.001,0.076-0.009,0.109-0.024C19.937,6.052,20,5.961,20,5.854V4.145C20,4.037,19.937,3.946,19.846,3.904z"/>
</svg>
