<?xml version="1.0" encoding="utf-8"?>
<!-- Generator: Adobe Illustrator 16.0.0, SVG Export Plug-In . SVG Version: 6.00 Build 0)  -->
<svg version="1.2" baseProfile="tiny" id="Capa_1" xmlns="http://www.w3.org/2000/svg" xmlns:xlink="http://www.w3.org/1999/xlink"
	 x="0px" y="0px" width="32px" height="32px" viewBox="0 0 32 32" xml:space="preserve">
<path fill="#FFFFFF" d="M27,0H5C2.229,0,0,2.24,0,5v22c0,2.761,2.229,5,5,5h22c2.76,0,5-2.239,5-5V5C32,2.24,29.76,0,27,0z
	 M25.549,10.98l0.012,0.69c0,7.07-5.281,15.221-14.951,15.221c-2.97,0-5.74-0.88-8.06-2.399c0.41,0.05,0.83,0.079,1.25,0.079
	c2.46,0,4.729-0.859,6.53-2.289c-2.301-0.051-4.24-1.59-4.91-3.721c0.319,0.061,0.649,0.101,0.989,0.101
	c0.48,0,0.94-0.07,1.381-0.19c-2.4-0.49-4.21-2.65-4.21-5.25v-0.06c0.699,0.4,1.52,0.64,2.38,0.66c-1.41-0.95-2.341-2.59-2.341-4.45
	c0-0.98,0.261-1.9,0.711-2.69c2.59,3.24,6.47,5.37,10.84,5.59c-0.09-0.39-0.141-0.8-0.141-1.22c0-2.95,2.36-5.35,5.26-5.35
	c1.51,0,2.881,0.65,3.84,1.69c1.189-0.24,2.32-0.68,3.33-1.3c-0.391,1.25-1.22,2.3-2.311,2.97c1.069-0.13,2.08-0.42,3.021-0.85
	C27.469,9.29,26.58,10.23,25.549,10.98z"/>
</svg>
