<?xml version="1.0" encoding="utf-8"?>
<!-- Generator: Adobe Illustrator 16.0.0, SVG Export Plug-In . SVG Version: 6.00 Build 0)  -->
<svg version="1.2" baseProfile="tiny" id="Capa_1" xmlns="http://www.w3.org/2000/svg" xmlns:xlink="http://www.w3.org/1999/xlink"
	 x="0px" y="0px" width="24px" height="28px" viewBox="0 0 24 28" xml:space="preserve">
<path fill-rule="evenodd" fill="#3D8AA4" d="M19.64,8.01l0.01,0.52c0,5.3-3.959,11.409-11.219,11.409c-2.22,0-4.3-0.66-6.04-1.799
	c0.31,0.039,0.62,0.059,0.94,0.059c1.85,0,3.54-0.639,4.9-1.719c-1.73-0.031-3.19-1.191-3.69-2.791c0.24,0.051,0.49,0.07,0.75,0.07
	c0.35,0,0.7-0.051,1.03-0.141c-1.8-0.369-3.16-1.99-3.16-3.93V9.64c0.53,0.3,1.14,0.48,1.79,0.5C3.89,9.42,3.19,8.19,3.19,6.8
	c0-0.74,0.2-1.42,0.54-2.02c1.94,2.43,4.85,4.03,8.12,4.19c-0.06-0.29-0.1-0.59-0.1-0.91c0-2.22,1.771-4.01,3.94-4.01
	c1.14,0,2.16,0.49,2.879,1.27c0.9-0.18,1.74-0.52,2.511-0.98c-0.3,0.94-0.92,1.72-1.74,2.22c0.8-0.09,1.56-0.31,2.271-0.63
	C21.08,6.73,20.41,7.44,19.64,8.01z M20,0H4C1.8,0,0,1.8,0,4v15.99C0,22.199,1.8,24,4,24h16c2.2,0,4-1.801,4-4.01V4
	C24,1.8,22.2,0,20,0z"/>
</svg>
