<?xml version="1.0" encoding="utf-8"?>
<!-- Generator: Adobe Illustrator 16.0.0, SVG Export Plug-In . SVG Version: 6.00 Build 0)  -->
<svg version="1.2" baseProfile="tiny" id="Capa_1" xmlns="http://www.w3.org/2000/svg" xmlns:xlink="http://www.w3.org/1999/xlink"
	 x="0px" y="0px" width="16px" height="16px" viewBox="0 0 16 16" xml:space="preserve">
<path fill-rule="evenodd" fill="#3D8AA4" d="M3,0h10c1.66,0,3,1.34,3,3v10c0,1.66-1.34,3-3,3H3c-1.66,0-3-1.34-3-3V3
	C0,1.34,1.34,0,3,0z"/>
<path fill-rule="evenodd" fill="#FFFFFF" d="M12.87,5.42l0.01,0.35c0,3.53-2.64,7.61-7.48,7.61c-1.48,0-2.87-0.45-4.03-1.21
	C1.58,12.2,1.79,12.21,2,12.21c1.23,0,2.36-0.42,3.26-1.14C4.11,11.05,3.14,10.27,2.81,9.21C2.97,9.24,3.13,9.26,3.3,9.26
	c0.24,0,0.47-0.039,0.69-0.1c-1.2-0.24-2.1-1.32-2.1-2.62V6.51c0.35,0.2,0.76,0.32,1.19,0.33c-0.71-0.48-1.17-1.3-1.17-2.22
	c0-0.5,0.13-0.95,0.35-1.35c1.3,1.62,3.24,2.68,5.42,2.8c-0.04-0.2-0.07-0.4-0.07-0.61c0-1.48,1.18-2.68,2.63-2.68
	c0.76,0,1.439,0.33,1.92,0.85c0.6-0.12,1.16-0.35,1.67-0.65c-0.2,0.62-0.609,1.14-1.16,1.48c0.54-0.07,1.04-0.21,1.51-0.42
	C13.83,4.57,13.391,5.04,12.87,5.42z"/>
</svg>
