<?xml version="1.0" encoding="utf-8"?>
<!-- Generator: Adobe Illustrator 16.0.0, SVG Export Plug-In . SVG Version: 6.00 Build 0)  -->
<svg version="1.2" baseProfile="tiny" id="Capa_1" xmlns="http://www.w3.org/2000/svg" xmlns:xlink="http://www.w3.org/1999/xlink"
	 x="0px" y="0px" width="20px" height="20px" viewBox="0 0 20 20" xml:space="preserve">
<g>
	<g>
		<path fill-rule="evenodd" fill="#FFFFFF" d="M11.189,13.7H9.41l2.67-2.671H6.74V9.25h5.34L9.41,6.58h1.779l3.561,3.56L11.189,13.7
			z M10.75,3.01c-3.94,0-7.13,3.19-7.13,7.13c0,3.93,3.19,7.12,7.13,7.12c3.93,0,7.12-3.189,7.12-7.12
			C17.87,6.2,14.68,3.01,10.75,3.01z"/>
	</g>
	<g>
		<path fill-rule="evenodd" fill="#74A533" d="M10.19,12.7H8.41l2.67-2.67H5.74V8.25h5.34L8.41,5.58h1.78l3.56,3.56L10.19,12.7z
			 M9.75,2.01c-3.94,0-7.13,3.19-7.13,7.13c0,3.93,3.19,7.12,7.13,7.12c3.93,0,7.12-3.189,7.12-7.12C16.87,5.2,13.68,2.01,9.75,2.01
			z"/>
	</g>
</g>
</svg>
