<?xml version="1.0" encoding="utf-8"?>
<!-- Generator: Adobe Illustrator 16.0.0, SVG Export Plug-In . SVG Version: 6.00 Build 0)  -->
<svg version="1.2" baseProfile="tiny" id="Capa_1" xmlns="http://www.w3.org/2000/svg" xmlns:xlink="http://www.w3.org/1999/xlink"
	 x="0px" y="0px" width="22px" height="14px" viewBox="0 0 22 14" xml:space="preserve">
<g>
	<path fill-rule="evenodd" fill="#19465F" d="M4.58,7c0-2.32,1.85-4.2,4.13-4.2c2.28,0,4.12,1.88,4.12,4.2c0,2.32-1.84,4.2-4.12,4.2
		C6.43,11.2,4.58,9.32,4.58,7z M2.06,0C0.93,0,0,0.94,0,2.1v9.8c0,1.16,0.93,2.1,2.06,2.1h12.379c1.131,0,2.061-0.939,2.061-2.1
		V9.33h2l3.5,2.8V1.87l-3.5,2.8h-2V2.1c0-1.16-0.93-2.1-2.061-2.1H2.06z M11,7L7.33,4.67v4.66L11,7z"/>
</g>
</svg>
