<?xml version="1.0" encoding="utf-8"?>
<!-- Generator: Adobe Illustrator 16.0.0, SVG Export Plug-In . SVG Version: 6.00 Build 0)  -->
<svg version="1.2" baseProfile="tiny" id="Capa_1" xmlns="http://www.w3.org/2000/svg" xmlns:xlink="http://www.w3.org/1999/xlink"
	 x="0px" y="0px" width="32px" height="32px" viewBox="0 0 32 32" xml:space="preserve">
<g opacity=".5">
	<path fill-rule="evenodd" d="M16.533,17l-5.114-3.363v6.727L16.533,17z M4.067,6.909c-1.587,0-2.877,1.358-2.877,3.028v14.127
		c0,1.668,1.29,3.027,2.877,3.027h17.261c1.584,0,2.877-1.359,2.877-3.027v-3.701h2.787l4.885,4.037V9.599l-4.885,4.038h-2.787v-3.7
		c0-1.67-1.293-3.028-2.877-3.028H4.067z M7.583,17c0-3.351,2.569-6.056,5.753-6.056c3.183,0,5.753,2.705,5.753,6.056
		c0,3.35-2.57,6.055-5.753,6.055C10.152,23.055,7.583,20.35,7.583,17z"/>
</g>
<g>
	<path fill-rule="evenodd" fill="#DDDDDD" d="M15.533,16l-5.114-3.363v6.727L15.533,16z M3.067,5.909
		c-1.587,0-2.877,1.358-2.877,3.028v14.127c0,1.668,1.29,3.027,2.877,3.027h17.261c1.584,0,2.877-1.359,2.877-3.027v-3.701h2.787
		l4.885,4.037V8.599l-4.885,4.038h-2.787v-3.7c0-1.67-1.293-3.028-2.877-3.028H3.067z M6.583,16c0-3.35,2.569-6.055,5.753-6.055
		c3.183,0,5.753,2.705,5.753,6.055s-2.57,6.055-5.753,6.055C9.152,22.055,6.583,19.35,6.583,16z"/>
</g>
</svg>
