<?xml version="1.0" encoding="utf-8"?>
<!-- Generator: Adobe Illustrator 16.0.0, SVG Export Plug-In . SVG Version: 6.00 Build 0)  -->
<!DOCTYPE svg PUBLIC "-//W3C//DTD SVG 1.1//EN" "http://www.w3.org/Graphics/SVG/1.1/DTD/svg11.dtd">
<svg version="1.1" id="Capa_1" xmlns="http://www.w3.org/2000/svg" xmlns:xlink="http://www.w3.org/1999/xlink" x="0px" y="0px"
	 width="23px" height="21px" viewBox="-0.5 0.5 23 21" enable-background="new -0.5 0.5 23 21" xml:space="preserve">
	<g opacity=".5">
		<path d="M5.254,11.473c0-2.224,1.772-4.024,3.957-4.024c2.184,0,3.948,1.801,3.948,4.024c0,2.223-1.764,4.025-3.948,4.025
			C7.026,15.498,5.254,13.695,5.254,11.473z M2.84,4.767c-1.083,0-1.974,0.899-1.974,2.012v9.39c0,1.111,0.891,2.012,1.974,2.012
			h11.861c1.082,0,1.974-0.9,1.974-2.012v-2.463h1.916l3.354,2.684v-9.83l-3.354,2.683h-1.916V6.777
			c0-1.111-0.892-2.012-1.974-2.012L2.84,4.767L2.84,4.767z M11.405,11.473L7.888,9.24v4.465L11.405,11.473z"/>
	</g>
	<g>
		<path fill="#DDDDDD" d="M4.443,10.526c0-2.222,1.772-4.023,3.957-4.023c2.184,0,3.949,1.802,3.949,4.023s-1.765,4.024-3.949,4.024
			C6.215,14.551,4.443,12.748,4.443,10.526z M2.029,3.82c-1.083,0-1.974,0.9-1.974,2.012v9.391c0,1.109,0.891,2.01,1.974,2.01h11.86
			c1.084,0,1.975-0.898,1.975-2.01V12.76h1.916l3.354,2.684V5.612l-3.354,2.682h-1.916V5.832c0-1.111-0.891-2.012-1.975-2.012H2.029
			z M10.593,10.526L7.078,8.294v4.466L10.593,10.526z"/>
	</g>
</svg>
