<?xml version="1.0" encoding="utf-8"?>
<!-- Generator: Adobe Illustrator 16.0.0, SVG Export Plug-In . SVG Version: 6.00 Build 0)  -->
<svg version="1.2" baseProfile="tiny" id="Capa_1" xmlns="http://www.w3.org/2000/svg" xmlns:xlink="http://www.w3.org/1999/xlink"
	 x="0px" y="0px" width="22px" height="22px" viewBox="0 0 22 22" xml:space="preserve">
<g>
	<path fill-rule="evenodd" d="M9.298,15.122c3.17,0,5.74-2.571,5.74-5.73c0-3.17-2.819-5.99-5.99-5.99c-3.16,0-5.73,2.57-5.73,5.73
		C3.318,12.301,6.138,15.122,9.298,15.122z M21.618,20.362l-1.26,1.27c-0.5,0.49-1.301,0.49-1.801,0l-5.09-5.09
		c-1.22,0.721-2.64,1.131-4.169,1.131c-4.57,0-8.53-3.961-8.53-8.541c0-4.57,3.71-8.28,8.28-8.28s8.53,3.97,8.53,8.54
		c0,1.57-0.44,3.04-1.2,4.3l5.061,5.051C21.938,19.243,22.118,19.872,21.618,20.362z"/>
</g>
<g>
	<path fill-rule="evenodd" fill="#FFFFFF" d="M8.53,14.449c3.17,0,5.74-2.571,5.74-5.73c0-3.17-2.82-5.99-5.99-5.99
		c-3.16,0-5.73,2.57-5.73,5.73C2.55,11.628,5.37,14.449,8.53,14.449z M20.85,19.689l-1.26,1.27c-0.5,0.49-1.301,0.49-1.801,0
		l-5.09-5.09C11.48,16.59,10.06,17,8.53,17C3.96,17,0,13.039,0,8.459c0-4.57,3.71-8.28,8.28-8.28s8.53,3.97,8.53,8.54
		c0,1.57-0.44,3.04-1.2,4.3l5.061,5.051C21.17,18.57,21.35,19.199,20.85,19.689z"/>
</g>
</svg>
